Coordinates
version=1
nRows=6
nColumns=63
inDegrees=yes

Units are S.I. units (second, meters, Newtons, ...)
If the header above contains a line with 'inDegrees', this indicates whether rotational values are in degrees (yes) or radians (no).

endheader
time	pelvis_tilt	pelvis_list	pelvis_rotation	pelvis_tx	pelvis_ty	pelvis_tz	hip_flexion_r	hip_adduction_r	hip_rotation_r	knee_angle_r	knee_angle_r_beta	ankle_angle_r	subtalar_angle_r	mtp_angle_r	hip_flexion_l	hip_adduction_l	hip_rotation_l	knee_angle_l	knee_angle_l_beta	ankle_angle_l	subtalar_angle_l	mtp_angle_l	L5_S1_Flex_Ext	L5_S1_Lat_Bending	L5_S1_axial_rotation	L4_L5_Flex_Ext	L4_L5_Lat_Bending	L4_L5_axial_rotation	L3_L4_Flex_Ext	L3_L4_Lat_Bending	L3_L4_axial_rotation	L2_L3_Flex_Ext	L2_L3_Lat_Bending	L2_L3_axial_rotation	L1_L2_Flex_Ext	L1_L2_Lat_Bending	L1_L2_axial_rotation	L1_T12_Flex_Ext	L1_T12_Lat_Bending	L1_T12_axial_rotation	Abs_r3	Abs_r2	Abs_r1	Abs_t1	Abs_t2	neck_flexion	neck_bending	neck_rotation	arm_flex_r	arm_add_r	arm_rot_r	elbow_flex_r	pro_sup_r	wrist_flex_r	wrist_dev_r	arm_flex_l	arm_add_l	arm_rot_l	elbow_flex_l	pro_sup_l	wrist_flex_l	wrist_dev_l
      7.76595745	     -1.82874523	     -6.70022592	     83.96048816	      0.00273323	      1.07134574	      0.49811229	      1.78448063	     -1.37796015	     -1.24601075	      4.48846443	      0.07833848	     22.90354492	     12.38548396	      0.00000000	      2.24916756	     -0.76308048	     10.27575717	      3.95925961	      0.06910212	     23.63574598	    -13.19227605	      0.00000000	     -0.08548295	     -0.02005590	      0.15578929	     -0.15875039	     -0.02667435	      0.16552612	     -0.14043994	     -0.04876392	      0.16552612	     -0.09769847	     -0.04876392	      0.13631563	     -0.07937947	     -0.04089800	      0.12657880	     -0.04884496	     -0.03106659	      0.11684197	     -0.61059619	     -0.22687638	      0.86645331	      0.00000000	      0.00000000	     19.27511833	      3.23993763	      9.19381404	      4.59381201	     -8.79973480	     40.85961859	     53.48561852	     87.90689033	     12.08782951	     15.33422088	     15.53705364	    -10.05249719	     58.24277805	     52.51978794	     74.05010866	      6.14950318	     11.45603316
      7.78723404	     -1.73767185	     -6.54860328	     84.18967198	      0.00265647	      1.07137693	      0.49786254	      1.58276301	     -1.30031700	     -1.67128322	      4.48117102	      0.07821119	     23.04784241	     12.88164113	      0.00000000	      2.06490650	     -0.83324420	     10.78657974	      3.93874398	      0.06874405	     23.53012248	    -13.62554443	      0.00000000	     -0.09256183	     -0.02333696	      0.07514919	     -0.17189657	     -0.03103816	      0.07984601	     -0.15206982	     -0.05674149	      0.07984601	     -0.10578891	     -0.05674149	      0.06575554	     -0.08595291	     -0.04758873	      0.06105871	     -0.05288983	     -0.03614895	      0.05636189	     -0.66115986	     -0.26399237	      0.41795723	      0.00000000	      0.00000000	     18.84977692	      3.05851189	      8.93207285	      4.98990320	     -9.00218471	     42.02374706	     53.31886013	     88.18811218	     11.76531201	     15.02561670	     15.44113870	    -10.05732634	     57.69441356	     52.55361921	     73.99033191	      6.53012124	     11.89318582
      7.80851064	     -1.68845542	     -6.37122115	     84.63971428	      0.00224454	      1.07146424	      0.49729628	      1.26094022	     -1.25607438	     -1.88410582	      4.35394973	      0.07599076	     23.08571602	     12.73395934	      0.00000000	      1.85374854	     -0.85103026	     11.32278721	      3.88594862	      0.06782260	     23.45869825	    -13.78271518	      0.00000000	     -0.10915301	     -0.02789693	     -0.03142644	     -0.20270805	     -0.03710292	     -0.03339059	     -0.17932748	     -0.06782861	     -0.03339059	     -0.12475097	     -0.06782861	     -0.02749813	     -0.10135948	     -0.05688743	     -0.02553398	     -0.06237003	     -0.04321235	     -0.02356983	     -0.77966903	     -0.31557570	     -0.17478442	      0.00000000	      0.00000000	     18.58229338	      3.05601091	      8.95554209	      5.24000801	     -9.25075598	     43.05862897	     53.27674800	     88.45484950	     11.34906448	     14.65511283	     15.31387522	    -10.01484691	     57.06130742	     52.56485123	     74.32193114	      7.01420137	     12.32939793
      7.82978723	     -1.61367384	     -6.23667156	     85.16151982	      0.00210104	      1.07147579	      0.49650851	      0.88491859	     -1.12514110	     -1.38075429	      4.08269760	      0.07125652	     22.92096349	     11.40972788	      0.00000000	      1.67635878	     -0.92608395	     11.92306060	      3.79114855	      0.06616802	     23.54361951	    -13.88661241	      0.00000000	     -0.12801246	     -0.03079390	     -0.14618979	     -0.23773193	     -0.04095588	     -0.15532665	     -0.21031166	     -0.07487228	     -0.15532665	     -0.14630544	     -0.07487228	     -0.12791606	     -0.11887237	     -0.06279491	     -0.11877920	     -0.07314632	     -0.04769975	     -0.10964234	     -0.91438017	     -0.34834672	     -0.81306373	      0.00000000	      0.00000000	     18.44659267	      3.15022651	      9.25306012	      5.21960643	     -9.28979358	     43.29611046	     53.17837854	     88.55640402	     11.50672513	     14.12433737	     15.14309361	    -10.10023812	     56.53024392	     52.71620315	     74.48101302	      7.06578465	     12.32718745
      7.85106383	     -1.61203902	     -6.20352652	     85.66598474	      0.00186743	      1.07131085	      0.49543186	      0.62478606	     -1.10092503	     -1.54330619	      3.85470553	      0.06727730	     22.85322387	     10.94374107	      0.00000000	      1.59809079	     -0.93091535	     12.23387151	      3.66822527	      0.06402261	     23.70446782	    -13.72183397	      0.00000000	     -0.14083655	     -0.03616783	     -0.20267940	     -0.26154756	     -0.04810322	     -0.21534686	     -0.23138037	     -0.08793847	     -0.21534686	     -0.16096210	     -0.08793847	     -0.17734447	     -0.13078082	     -0.07375345	     -0.16467701	     -0.08047401	     -0.05602397	     -0.15200955	     -1.00598141	     -0.40913776	     -1.12724201	      0.00000000	      0.00000000	     18.62213206	      3.25811867	      9.55142325	      4.56552737	     -9.20113001	     42.00918371	     53.39093462	     88.45925355	     12.22401449	     13.98479322	     15.02265846	    -10.05395002	     56.24382128	     52.75273215	     74.82148898	      6.85616588	     11.99641048
      7.87234043	     -1.60448973	     -6.19460077	     86.33777664	      0.00139895	      1.07110112	      0.49412372	      0.33138920	     -1.07106253	     -1.95402449	      3.57653915	      0.06242238	     22.78288105	     10.57540960	      0.00000000	      1.53768788	     -0.93946281	     12.64756706	      3.49176305	      0.06094276	     23.89658337	    -13.46776501	      0.00000000	     -0.16030026	     -0.03605707	     -0.25494119	     -0.29769361	     -0.04795591	     -0.27087501	     -0.26335730	     -0.08766916	     -0.27087501	     -0.18320717	     -0.08766916	     -0.22307354	     -0.14885482	     -0.07352758	     -0.20713972	     -0.09159557	     -0.05585240	     -0.19120589	     -1.14500872	     -0.40788481	     -1.41790641	      0.00000000	      0.00000000	     19.05241208	      3.41492482	      9.94440689	      3.74773063	     -9.07632090	     40.40559013	     53.55379312	     88.21938482	     12.41671462	     13.50502825	     14.98041463	     -9.94347029	     56.30765635	     52.72460549	     75.07454041	      6.47292816	     11.50144459
